<svg id="Layer_1" data-name="Layer 1" xmlns="http://www.w3.org/2000/svg" viewBox="0 0 139.82 131.74"><defs><style>.cls-1{fill:none;}.cls-1,.cls-2{stroke:#61dafb;stroke-miterlimit:10;stroke-width:4.45px;}.cls-2,.cls-3{fill:#fff;}.cls-4{fill:#61dafb;}</style></defs><title>Artboard 3</title><path class="cls-1" d="M93.69,30a22.65,22.65,0,0,0-4.1.44,25.86,25.86,0,0,0-39.36,0,22.67,22.67,0,0,0-4.1-.44A23.77,23.77,0,0,0,35.37,75l0,32.67a8.82,8.82,0,0,0,8.82,8.83H95.68a8.83,8.83,0,0,0,8.82-8.82V74.92A23.77,23.77,0,0,0,93.69,30Z"/><path class="cls-2" d="M93.69,26.26a22.65,22.65,0,0,0-4.1.44,25.86,25.86,0,0,0-39.36,0,22.67,22.67,0,0,0-4.1-.44,23.77,23.77,0,0,0-10.76,45l0,32.67a8.82,8.82,0,0,0,8.82,8.83H95.68a8.83,8.83,0,0,0,8.82-8.82V71.21A23.77,23.77,0,0,0,93.69,26.26Z"/><circle class="cls-3" cx="69.68" cy="40.73" r="22.78"/><path class="cls-4" d="M45.07,72.91a2.24,2.24,0,0,0,3-1,24.35,24.35,0,0,1,9.6-10.15A11.76,11.76,0,0,0,61.07,63a2.1,2.1,0,0,0,.56.07,2.25,2.25,0,0,0,.56-4.42c-8.93-2.32-12.8-9.34-12.8-18.58A20.28,20.28,0,1,1,80.57,57.17l-.07,0a20.15,20.15,0,0,1-2.58,1.38,2.25,2.25,0,0,0,1.83,4.11c.66-.3,1.3-.62,1.92-1a24.28,24.28,0,0,1,10,11,2.25,2.25,0,0,0,2,1.33,2.21,2.21,0,0,0,.92-.2,2.25,2.25,0,0,0,1.13-3,28.78,28.78,0,0,0-10.1-12,24.78,24.78,0,1,0-32,0,28.86,28.86,0,0,0-9.62,10.93A2.25,2.25,0,0,0,45.07,72.91Z"/><path class="cls-4" d="M62.49,46.71a12.29,12.29,0,0,0,7.27,2.4,11.87,11.87,0,0,0,7-2.34,2.25,2.25,0,1,0-2.62-3.65,7.43,7.43,0,0,1-8.91.05,2.25,2.25,0,0,0-2.77,3.54Z"/><path class="cls-4" d="M66.13,35.19a2.64,2.64,0,1,0-2.64,2.64A2.65,2.65,0,0,0,66.13,35.19Z"/><path class="cls-4" d="M78.52,35.19a2.64,2.64,0,1,0-2.64,2.64A2.64,2.64,0,0,0,78.52,35.19Z"/><path class="cls-4" d="M61.75,85.61l6.59,6.45a2.25,2.25,0,0,0,3.14,0l6.6-6.45a2.25,2.25,0,0,0,.58-2.27L72.28,62.68a2.25,2.25,0,0,0-4.28,0L61.18,83.31A2.24,2.24,0,0,0,61.75,85.61Zm8.32-14.88L74,83.36l-4,4-4-3.93Z"/></svg>